<svg width="4" height="12" viewBox="0 0 4 12" fill="none" id="svg-388115426_1648">
<path d="M2.46788 5.49863C2.49215 5.66176 2.46751 5.82842 2.39707 5.97754C2.32662 6.12667 2.21354 6.25155 2.07212 6.33641C1.9307 6.42126 1.76729 6.46228 1.60256 6.45426C1.43783 6.44625 1.27917 6.38956 1.14666 6.29138C1.01414 6.1932 0.913718 6.05792 0.858083 5.90267C0.802449 5.74741 0.794103 5.57914 0.834101 5.41914C0.874099 5.25913 0.960646 5.11459 1.0828 5.00377C1.20494 4.89296 1.35721 4.82085 1.52034 4.79658C1.73909 4.76402 1.96181 4.8197 2.13951 4.95136C2.31721 5.08302 2.43532 5.27988 2.46788 5.49863ZM1.07028 1.77233C1.23341 1.74806 1.38568 1.67595 1.50783 1.56514C1.62998 1.45432 1.71652 1.30977 1.75652 1.14977C1.79652 0.989771 1.78817 0.821502 1.73254 0.666244C1.6769 0.510985 1.57648 0.375711 1.44396 0.277528C1.31145 0.179344 1.15279 0.122661 0.988062 0.114646C0.823332 0.106631 0.659924 0.147644 0.518503 0.232499C0.377082 0.317354 0.263998 0.44224 0.193554 0.591364C0.123109 0.740488 0.0984675 0.907152 0.122744 1.07028C0.155297 1.28903 0.273415 1.48589 0.451113 1.61755C0.628811 1.74921 0.851532 1.80489 1.07028 1.77233ZM2.21589 9.47041C2.05276 9.49469 1.90049 9.56679 1.77834 9.67761C1.65619 9.78842 1.56964 9.93297 1.52965 10.093C1.48965 10.253 1.49799 10.4212 1.55363 10.5765C1.60926 10.7318 1.70969 10.867 1.8422 10.9652C1.97472 11.0634 2.13337 11.1201 2.2981 11.1281C2.46283 11.1361 2.62624 11.0951 2.76766 11.0102C2.90908 10.9254 3.02217 10.8005 3.09261 10.6514C3.16306 10.5023 3.1877 10.3356 3.16342 10.1725C3.13087 9.95371 3.01275 9.75685 2.83505 9.62519C2.65736 9.49353 2.43463 9.43786 2.21589 9.47041Z" fill="#695547"></path>
</svg>